<?xml version="1.0" encoding="UTF-8" standalone="no"?>
<svg
   viewBox="0 0 1845 1387"
   width="1845"
   height="1387"
   version="1.1"
   id="svg1114"
   sodipodi:docname="poulet_guitare.svg"
   inkscape:version="1.2.2 (b0a8486541, 2022-12-01)"
   xmlns:inkscape="http://www.inkscape.org/namespaces/inkscape"
   xmlns:sodipodi="http://sodipodi.sourceforge.net/DTD/sodipodi-0.dtd"
   xmlns="http://www.w3.org/2000/svg"
   xmlns:svg="http://www.w3.org/2000/svg">
  <defs
     id="defs1118" />
  <sodipodi:namedview
     id="namedview1116"
     pagecolor="#ffffff"
     bordercolor="#000000"
     borderopacity="0.25"
     inkscape:showpageshadow="2"
     inkscape:pageopacity="0.0"
     inkscape:pagecheckerboard="0"
     inkscape:deskcolor="#d1d1d1"
     showgrid="false"
     inkscape:zoom="1.3124144"
     inkscape:cx="980.63539"
     inkscape:cy="437.36186"
     inkscape:window-width="1920"
     inkscape:window-height="1009"
     inkscape:window-x="1920"
     inkscape:window-y="32"
     inkscape:window-maximized="1"
     inkscape:current-layer="layer1" />
  <g
     inkscape:groupmode="layer"
     id="layer1"
     inkscape:label="stripes">
    <rect
       style="display:inline;fill:#ffcc00;fill-opacity:1;stroke-width:0;stroke-opacity:0.165742"
       id="background"
       width="1883.613"
       height="1409.8989"
       x="-19.456127"
       y="-5.9109688"
       inkscape:highlight-color="#ffd900" />
    <path
       style="display:inline;fill:#000080;fill-opacity:1;stroke-width:0;stroke-opacity:0.165742"
       d="m 625.06285,910.08801 c -7.32373,-1.62813 -24.90385,-5.49919 -39.06694,-8.60236 -28.09668,-6.15605 -33.78817,-8.65749 -38.97854,-10.19236 0.41167,-1.46727 4.03368,-13.39874 5.16981,-16.25171 4.14924,-10.41935 5.21059,-11.5668 5.21059,-11.5668 0,0 23.13494,1.73071 32.86798,3.40651 9.73304,1.67581 23.96229,3.04312 31.46155,3.60624 7.49927,0.56311 18.83984,2.6651 27.01216,4.38851 8.17232,1.72341 21.44603,2.97025 26.95782,4.19435 l 14.95544,3.32144 -9.46779,6.27916 c -7.54899,5.00658 -20.17031,13.15904 -29.05225,20.15643 -4.30808,3.39399 -7.04122,5.9164 -7.90284,5.8481 -0.86162,-0.0683 -11.84326,-2.95938 -19.16699,-4.58751 z"
       id="path11686"
       sodipodi:nodetypes="sscscsssscssss" />
    <path
       style="fill:#ffffff;fill-opacity:1;stroke-width:0;stroke-opacity:0.165742"
       d="m 695.60842,721.23 c -14.36894,-1.0122 -36.31982,-2.6141 -50.52242,-3.29201 -14.2026,-0.67791 -26.19286,-0.87885 -26.49687,-1.18287 -0.57384,-0.57384 8.4382,-38.41203 9.40639,-39.38022 0.30177,-0.30176 8.78621,0.0359 17.39972,0.79369 42.09688,3.70356 74.2285,2.75886 173.87408,4.02214 l 109.48697,-0.50463 -8.80955,10.12946 c -5.61643,6.45793 -21.66431,27.02079 -23.10927,30.78631 -0.95764,2.49554 -164.6154,1.20734 -201.22905,-1.37187 z"
       id="path11422"
       sodipodi:nodetypes="sssscscsss" />
    <path
       style="fill:#ffffff;fill-opacity:1;stroke-width:0;stroke-opacity:0.165742"
       d="m 1058.4225,685.60946 -28.9718,-14.05479 31.3362,-8.87918 c 26.3085,-3.13066 49.8236,-5.68814 73.7571,-8.94307 -3.3356,3.56206 -46.949,47.64593 -48.6385,47.79047 -0.5162,0.0442 -15.5788,-7.58141 -27.483,-15.91343 z"
       id="path11424"
       sodipodi:nodetypes="scccss" />
    <path
       style="fill:#000080;fill-opacity:1;stroke-width:0;stroke-opacity:0.165742"
       d="m 1210.6932,860.7672 c -4.0103,-14.30133 -11.0926,-29.27156 -17.1636,-40.26153 -4.2946,-7.77438 -5.4427,-11.87469 -5.4427,-12.60405 0,-1.17615 4.033,-1.4146 12.2471,-1.99478 16.5167,-1.16664 37.6105,-4.44225 49.7678,-7.72837 4.4143,-1.19317 10.6413,-2.58368 13.8378,-3.09002 7.2527,-1.14888 11.6434,-2.49552 14.4278,-4.42505 2.0625,-1.42933 1.8868,-3.33276 2.7253,-4.84229 0.6478,1.19295 2.3765,5.15583 2.5742,5.98916 0.1978,0.83333 1.1846,5.47444 2.2081,9.47715 1.0235,4.0027 2.1272,9.23337 2.4526,11.6237 0.3254,2.39034 1.8539,11.00755 2.5953,14.25819 2.4855,10.89845 1.6654,15.05911 -4.03,20.44555 -10.4971,7.86245 -19.2152,5.72045 -31.2485,9.25267 -8.6441,2.68737 -10.5864,3.52192 -24.6387,6.08728 -6.6974,1.22268 -13.4395,2.55171 -14.9822,2.95339 l -3.6839,0.73034 z"
       id="path11680"
       sodipodi:nodetypes="ssssssscssssccsscs" />
    <path
       style="fill:#000080;fill-opacity:1;stroke-width:0;stroke-opacity:0.165742"
       d="m 736.81774,851.5735 c -1.21772,-0.11559 -15.04122,-0.83705 -18.8466,-1.15821 -3.80538,-0.32115 -12.64059,-0.90358 -19.18584,-1.63923 -6.54525,-0.73566 -16.99792,-1.89566 -23.23874,-2.53088 -12.79189,-1.30201 -14.37112,-1.98988 -37.30528,-5.88173 -18.63231,-3.16183 -23.54911,-3.56507 -29.42608,-5.40899 -2.28323,-0.71637 -7.24771,-2.45201 -11.2053,-3.51667 -11.46837,-3.08519 -16.15976,-6.39306 -19.95582,-10.80686 -1.46571,-1.70423 -0.57321,-2.24613 0.1774,-4.03083 2.21935,-5.27685 8.7398,-19.40399 10.77428,-23.72938 l 2.95885,-6.29059 11.53615,0.33992 c 28.69387,0.84549 47.55139,2.15512 95.66963,6.64423 55.68409,5.19496 68.76291,6.13236 96.86422,6.94254 11.01424,0.31755 21.60992,0.80989 24.68743,1.28886 2.89209,0.45011 7.93792,0.37418 10.60168,0.37964 3.18722,0.007 6.58774,0.42784 6.58774,0.83403 0,2.73872 -32.18343,28.27577 -43.67303,34.04653 -6.13947,3.0836 -30.92223,12.63898 -41.32208,15.08267 -4.57382,1.07472 -9.9144,-0.016 -15.69861,-0.56505 z"
       id="path11674"
       sodipodi:nodetypes="sssssssssscsssscssss" />
    <path
       style="fill:#000080;fill-opacity:1;stroke-width:0;stroke-opacity:0.165742"
       d="m 1212.9289,745.09955 c 1.673,-1.45884 7.0121,-7.48192 10.5291,-11.66688 3.517,-4.18496 8.5731,-8.34683 10.3017,-9.68594 4.1686,-3.22938 5.1554,-4.66272 11.2326,-10.97147 6.1217,-6.35502 7.6861,-7.03923 10.8238,-10.84344 2.2866,3.55411 3.1534,3.40879 5.8037,13.26548 2.5463,8.88822 7.5346,19.58711 8.0867,27.32685 -2.3941,4.06374 -5.0829,7.42815 -13.2141,11.38509 -13.3645,6.50373 -32.8224,10.03533 -47.3017,11.10565 -2.5876,0.19128 -11.589,0.10084 -12.6039,0.25803 4.6276,-5.47044 11.6566,-13.87093 16.3421,-20.17337 z"
       id="path11678"
       sodipodi:nodetypes="cssscccsscc" />
    <path
       style="fill:#ffffff;fill-opacity:1;stroke-width:0;stroke-opacity:0.165742"
       d="m 1202.804,944.08379 4.8787,-8.50961 c 10.5338,-2.15581 19.3712,-3.24308 30.4548,-6.30591 2.6469,-1.13045 9.9348,-3.26111 15.6067,-4.66279 17.087,-4.22261 28.4036,-8.53247 39.0897,-14.95536 8.4952,-5.10602 8.0677,-4.74192 10.7348,-8.35697 1.2692,8.82467 2.6119,19.67093 3.7299,28.48152 l 0.821,7.79457 c -10.1934,6.18845 -18.8345,10.07591 -52.6752,22.73729 -36.052,13.48876 -36.2491,13.11685 -64.7139,19.3419 -12.1002,2.64622 -41.725,9.6186 -43.0484,10.02709 14.859,-9.81057 47.5591,-33.37218 55.1219,-45.59173 z"
       id="path11434"
       sodipodi:nodetypes="cccsscccsscc" />
    <path
       style="fill:#ffffff;fill-opacity:1;stroke-width:0;stroke-opacity:0.165742"
       d="m 1213.8343,881.12722 c -0.3962,-8.21991 -1.4801,-14.07634 -0.9042,-14.60868 0.576,-0.53233 13.2867,-3.46159 20.8493,-4.76405 13.1687,-2.26795 37.9412,-10.8168 46.7197,-15.35636 2.2994,-1.18903 11.9065,-8.31005 11.5325,-13.21916 1.1354,4.04433 1.5748,5.20565 3.3362,14.22383 0.7623,3.90303 1.6928,11.94995 2.6351,17.79028 2.1024,13.03128 1.0469,7.16156 2.0142,13.2319 -2.4246,1.04567 -12.8887,4.86519 -15.0177,5.68815 -4.6042,1.77977 -17.6805,4.78162 -32.9032,8.04678 -6.0501,1.29769 -15.4213,2.6347 -18.4463,3.318 -6.7027,0.79176 -12.7043,2.67959 -18.8692,5.28714 z"
       id="path11436"
       sodipodi:nodetypes="sssscsscssccs" />
    <path
       style="display:inline;fill:#000080;fill-opacity:1;stroke-width:0;stroke-opacity:0.165742"
       d="m 1207.2353,937.55344 c 0.5956,-2.0656 4.1614,-14.27863 5.7341,-22.30146 1.5727,-8.02282 1.7978,-14.81021 2.5634,-15.48599 0.7657,-0.67578 10.3893,-2.87743 18.1439,-4.39489 16.4701,-3.22296 45.2757,-9.91331 50.9136,-11.82511 2.1541,-0.73043 12.2011,-5.31967 15.3402,-5.83746 0.7767,4.31939 0.6665,3.87696 1.7251,7.59966 0.7923,2.7862 2.0972,12.26677 1.9069,16.02332 -0.2147,4.24027 -7.0873,7.75298 -10.084,9.37584 -10.8541,5.87794 -19.465,8.86543 -31.6035,12.15041 -6.8929,1.86539 -19.5822,5.392 -28.1983,7.83693 -25.6657,7.28291 -18.9191,4.69492 -26.4414,6.85875 z"
       id="path11684"
       sodipodi:nodetypes="csssscsssssc" />
    <path
       style="display:inline;fill:#ffffff;fill-opacity:1;stroke-width:0;stroke-opacity:0.165742"
       d="m 1183.3707,797.34032 c -2.9263,-6.37737 -3.5501,-8.19299 -4.9522,-11.22761 2.2931,-2.52989 6.0594,-7.25357 10.3989,-11.87136 l 8.5653,-9.11436 17.1884,-1.22135 c 9.3412,-0.66376 40.2927,-5.7089 49.8396,-15.82383 l 5.2983,-5.61351 3.2669,10.85837 c 1.5133,5.02973 3.5472,12.2194 4.4421,16.0007 0.8949,3.7813 2.9025,13.26561 3.5987,15.79488 0.2845,1.03361 0.218,6.90991 -10.4454,8.97664 -4.4596,0.86432 -20.7309,4.29406 -26.4028,5.72632 -12.0189,3.03495 -26.7753,5.11558 -43.8532,6.71209 l -12.2013,1.14063 z"
       id="path11426"
       sodipodi:nodetypes="scscsscsssssscs" />
    <path
       style="fill:#000080;fill-opacity:1;stroke-width:0;stroke-opacity:0.165742"
       d="m 825.85033,771.75168 c -20.06583,-0.4152 -42.95474,-1.73194 -56.0366,-2.63262 -6.85447,-0.47193 -18.41968,-0.97417 -25.5738,-1.43984 -7.15411,-0.46567 -19.63957,-1.18312 -28.16362,-1.7691 -8.52405,-0.58597 -20.52168,-1.42375 -26.76251,-1.75296 -14.14773,-0.74632 -24.34474,-2.03273 -43.83566,-5.55904 -16.35497,-2.95895 -22.91133,-4.69911 -29.53643,-7.45715 -4.48482,-1.86703 -7.5867,-2.70925 -8.19932,-5.15014 -0.25212,-1.0045 2.04459,-5.81624 4.19448,-12.25503 1.69491,-5.07612 5.09014,-13.1763 5.58061,-14.90601 1.08785,-3.83642 0.66884,-2.32003 8.16321,-1.5282 2.89209,0.30556 6.59353,0.0326 10.85555,0.0383 10.57474,0.0142 25.8127,0.79401 59.77906,3.05912 41.96726,2.79867 51.61299,3.02723 127.99913,3.033 55.09278,0.004 70.69488,-0.97542 70.69058,-0.42559 -0.01,1.22555 -2.85731,8.11344 -6.25907,13.50923 -1.82331,2.89209 -5.04044,7.70745 -6.65661,10.75175 -3.93792,7.41769 -12.70008,20.7541 -15.08223,22.84566 -1.05539,0.92664 -1.02067,2.15505 -2.17061,2.47438 -13.60599,0.0897 -26.38894,-0.5627 -38.98616,-0.83576 z"
       id="path11676"
       sodipodi:nodetypes="cssssssssssssscssscc" />
    <path
       style="fill:#ffffff;fill-opacity:1;stroke-width:0;stroke-opacity:0.165742"
       d="m 692.55253,882.39546 c -4.53756,-0.59314 -33.54138,-4.86049 -40.64314,-6.4539 -7.10176,-1.59342 -20.40507,-3.47 -29.56291,-4.17019 -9.15783,-0.70018 -21.26695,-2.24515 -26.90916,-3.43325 -5.64219,-1.18811 -14.92357,-2.49025 -20.62528,-2.89366 -14.67069,-1.03798 -9.90031,-0.82939 -17.4567,-1.94802 1.5267,-3.93081 17.42395,-42.71062 19.67708,-45.02681 1.20003,1.53849 1.2862,1.58715 2.63431,3.51184 1.17328,1.6751 3.99298,4.00735 6.266,5.18277 7.34104,3.7962 31.76555,9.10642 53.49247,12.74068 25.15775,4.20813 99.81029,12.5417 111.95722,12.57145 -8.50515,4.35605 -5.50274,1.77819 -24.28116,11.00812 -9.38358,4.6122 -21.05172,10.77008 -25.58928,13.32625 -9.38979,5.2896 0.008,0.47144 -8.95945,5.58472 z"
       id="path11430"
       sodipodi:nodetypes="cssssccssscssc" />
    <path
       style="fill:#ffffff;fill-opacity:1;stroke-width:0;stroke-opacity:0.165742"
       d="m 798.19853,801.51678 c -17.39399,-0.57392 -46.02579,-2.84936 -63.41978,-4.40673 -17.39399,-1.55737 -45.55774,-4.03327 -62.5736,-5.56398 -17.01586,-1.53072 -42.13296,-3.25119 -55.93471,-3.74797 -28.19195,-1.01475 -15.16128,-0.92187 -24.86284,-1.21665 1.75677,-7.15375 9.3675,-27.44939 14.2219,-36.9185 1.83181,-3.57318 0.90888,-1.89872 2.13884,-4.29294 -0.67332,4.77378 44.12999,16.09623 84.02765,19.08008 40.75296,3.04782 145.05959,7.17589 164.95071,7.73923 l 8.27541,0.23437 -6.13902,8.15914 c -2.02701,2.69402 -7.4582,8.73734 -12.25849,13.82718 -6.66168,7.06348 -6.3428,8.31394 -9.00373,8.1471 -1.91744,-0.12021 -22.02835,-0.46641 -39.42234,-1.04033 z"
       id="path11428"
       sodipodi:nodetypes="sssscscsscssss" />
    <path
       style="fill:#ffffff;fill-opacity:1;stroke-width:0;stroke-opacity:0.165742"
       d="m 596.76479,961.28659 c -8.7912,-3.77314 -14.89898,-6.73801 -22.39018,-10.95713 -3.85307,-2.16298 -9.5037,-5.63091 -13.285,-7.76779 -11.76195,-6.64687 -25.13347,-20.61716 -25.12089,-26.96128 0.002,-1.17539 3.71175,-10.07433 6.20455,-15.02313 l 4.91814,-9.34235 7.11116,2.15995 c 9.1021,2.76468 18.92821,2.82488 65.78371,15.03411 l 23.70961,6.17806 -12.52061,11.94471 c -5.61181,5.35369 -12.66592,16.02998 -17.33949,23.07975 -4.67357,7.04976 -8.82805,15.46001 -9.58431,15.43449 -0.75626,-0.0255 -5.59604,-2.69912 -7.48669,-3.77939 z"
       id="path11432"
       sodipodi:nodetypes="ccscscsscsssc" />
  </g>
  <g
     fill="#281D11"
     fill-opacity="1.00"
     stroke="None"
     id="g608"
     inkscape:label="chicken">
    <path
       d="m 930,133 c -6.27,3.35 -13.67,8.48 -17,15 -3.1,7.89 -7.29,17.63 -17.99,15.99 -10.7,-1.64 -17.52,-4.07 -28.01,-4.99 -6.22,-0.55 -12.75,0 -19,0 -7.07,0 -13.43,1.32 -20,3 -5.16,1.95 -11.07,4.95 -16,8 -15.04,9.31 -31.9,25.66 -18.75,43.75 13.14,18.1 -15.08,30.24 -30.03,35.47 -14.94,5.24 -31.67,17.48 -45.22,26.78 -18.21739,12.7 -28.54593,20.67951 -44,35 -6.05864,6.91656 -12.09,13.09 -18,19 -3.37,3.94 -6.98,8.06 -10,12 -6.56,10.82 -15.71,19.66 -22.22,30.78 -6.51,11.11 -14.97,19.99 -19.47,32.53 -4.51,12.53 -12.22,23.65 -15.98,37.02 -3.76,13.37 -18.7,15.52 -29.33,22.67 -5.72,3.85 -13.39,6.8 -20,10 -3.22,1.56 -6.05,2.78 -9,5 -5.5,4.13 -11.27,8.07 -17,12 -9.78,6.71 -18.53,14.49 -27.75,22.25 -9.23,7.75 -16.93,16.9 -21.93,27.07 -5,10.17 -4.49,30.95 10.68,31.68 15.17,0.73 26.18,4.3 39.78,9.22 17.01899,2.63847 26.82041,4.29742 43.22,6.78 17.93364,1.53556 33.02,-0.39 45.93,3.07 12.91,3.47 16.62,16.33 21.74,27.26 5.12,10.93 3.23999,32.88032 3.33,45.67 0.0376,5.34855 0.0163,7.47566 -0.20419,12.02426 10.67072,0.79872 13.58786,1.44632 22.9507,2.04787 11.31853,0.73974 11.36841,1.13716 21.25349,1.34658 8.34491,0.62728 19.09726,1.25164 26.81472,1.53328 17.72614,0.64687 26.14133,0.79698 42.18528,1.04801 23.72,0 47.93,1 72,1 4.71,-0.46 10.6,-1 16,-1 h 53 c 8.7077,-0.21928 18.62927,0.0302 27.77927,0.0302 5.64,0 12.74434,-0.37328 18.60416,-1.51601 C 936.46343,681.07415 941.36,673.82 949,671 c 8.67133,-2.81959 13.57516,-3.92392 23,-6 10.18,-0.2 22.47029,0.57775 32.1903,1.41775 9.73,0.83 17.2368,5.05642 27.0368,4.71642 16.09,-0.55 32.7929,-5.75417 48.7929,-8.11417 16.01,-2.35 53.2154,-8.42229 53.2154,-8.42229 0,0 11.3865,-11.337 18.1765,-17.137 24.44,-20.88 47.6483,-44.2067 70.5881,-66.46071 12.2649,-10.62409 17.0279,-15.72436 25.2286,-25.27329 C 1245.9686,530.56671 1243.42,513.69 1239,499 c -4.43,-14.69 -1.48,-25.88 11.3,-34.7 12.79,-8.81 16.03,-14.04 23.77,-27.23 7.75,-13.19 -21.29,-18.1 -19.07,-31.07 2.22,-12.96 13.8,-18.96 21.7,-29.3 7.89,-10.34 15.28,-25.73 1.31,-32.71 -13.97,-6.97 -32.32,4.23 -42.24,-8.76 -9.92,-13 5.94,-25.09 7.25,-39.21 1.32,-14.11 8.02,-28.21 5.91,-44.95 -2.12,-16.73 -17.67,-18.9 -31.7,-13.84 -14.03,5.06 -18.77,16.9 -35.01,15.55 -16.23,-1.35 -11.25,-26.73 -11.22,-38.78 0.02,-12.04 -4.98,-30.21 -10.08,-40.92 -5.09,-10.72 -13.58,-21.9 -23.67,-28.33 -10.1,-6.43 -19.97,-22.03 -34.17,-14.67 -14.2,7.36 -5.54,27.73 -8.3,41.7 -2.77,13.96 -19.99,16.67 -29.78,5.22 -6.17,-6.17 -11.84,-12.84 -18,-19 -18.51,-15.82 -36.73,-25.84 -60,-31 -18.2,-4.03 -40.48,-0.48 -57,6 m -88,183 c 2.04,0.08 3.57,0.67 5,1 58.09,4.61 110.44,51.94 117,111 6.56,59.06 -37.46,117.02 -96.01,129.99 C 809.45,570.96 739.48,551.47 712,494 c 8.63,5.94 21.23,6.81 31,3 5.16,-2.7 12.71,-7.45 17,-12 3.27636,-3.5642 4.68918,-7.79191 5,-12 0.3,-4.14 0.38,-8.87 0,-13 -6.59,-31.84 -55.47,-37.03 -66,-5 -2.48,-1.7 -1.99,-5.23 -2,-8 -0.94,-6.61 -1.06,-14.45 0,-21 0.95,-17.59 9.3,-32.76 17,-48 6.09,-12.05 17.81,-24.17 29,-32 20.18,-14.13 41.13,-20.07 64,-28 10.5,-3.64 24.01,-3.59 35,-2 z"
       id="chicken_head"
       sodipodi:nodetypes="ccscsccccccccccscccccsscccsscccsccscscccccccccccccccccccsccccscccccccsccccccccccccc"
       style="fill:#000000;fill-opacity:1" />
    <path
       style="display:inline;fill:#000000;fill-opacity:1;stroke-width:0;stroke-opacity:0.165742"
       d="m 809.61692,1306.5142 c -11.46668,-1.0753 -33.87882,-2.9869 -49.80476,-4.2482 -28.03823,-2.2205 -76.72096,-13.0763 -118.14152,-26.3445 -20.78475,-6.658 -65.45677,-29.3221 -82.34679,-41.7783 -23.24428,-17.1423 -51.7545,-59.0405 -60.31204,-88.6337 -5.15436,-17.8245 -6.04976,-92.1468 -1.36749,-113.5085 5.66586,-25.8492 37.41702,-113.08616 38.32576,-116.47763 0.39455,0.72102 5.16173,9.20193 12.6931,16.17465 8.29303,7.67788 21.49574,16.48951 33.47737,22.34316 l 22.26302,10.92811 -5.53018,12.16553 c -8.62836,18.98102 -3.70676,65.44408 3.67137,83.98818 12.59527,31.657 39.95469,69.5091 69.02579,94.7679 10.46512,9.0928 31.50742,29.888 46.15928,44.7534 28.11155,28.5214 50.40517,45.2261 83.08386,61.4375 23.52406,11.6699 37.18443,15.5159 61.88974,15.3848 23.5059,-0.1248 42.14933,-4.2008 61.41128,-14.3602 28.83244,-15.207 74.5861,-64.8504 91.99339,-103.5094 3.4888,-7.7481 10.6434,-27.2961 16.0847,-42.585 5.4414,-15.2889 12.6939,-31.4923 15.8554,-37.8627 7.8438,-15.8057 45.2746,-58.1121 68.0955,-73.2304 27.7973,-18.41505 39.4529,-18.67644 76.4731,-27.28949 32.441,-7.54767 92.5512,-28.65032 108.627,-38.13525 4.1684,-2.45944 6.864,-3.06583 6.864,-3.06583 0,0 2.2564,11.95721 4.107,24.23392 1.8506,12.27672 4.571,38.42685 6.0454,58.11135 2.5007,33.3885 2.3298,38.0306 -2.5478,69.1805 -11.1309,71.0867 -29.3105,104.6486 -78.9566,145.764 -27.1617,22.4945 -49.2158,35.6148 -86.9528,51.7294 -24.3876,10.4141 -34.5447,12.511 -80.738,16.6682 -45.4916,4.094 -226.71394,6.4678 -259.44808,3.3985 z"
       id="chicken_bottom"
       sodipodi:nodetypes="sssssscsscssssssssssssscsssssss" />
  </g>
  <g
     fill="#8E311B"
     fill-opacity="1.00"
     stroke="None"
     id="g872"
     inkscape:label="guitar holes">
    <path
       d=" M 998.00 850.00  C 960.02 840.59 929.71 882.31 942.07 915.93 C 954.43 949.54 1000.36 956.22 1022.70 929.70 C 1045.03 903.17 1031.78 858.37 998.00 850.00 Z"
       id="guitar_circle_hole" />
    <path
       d=" M 846.00 984.00  C 829.07 981.92 818.99 1003.33 828.25 1014.75 C 837.51 1026.17 845.43 1031.08 855.75 1041.25 C 866.07 1051.42 871.58 1061.48 886.00 1065.00 C 900.42 1068.52 913.60 1043.94 903.30 1034.70 C 893.00 1025.46 885.59 1016.47 875.25 1008.75 C 864.91 1001.04 858.50 985.54 846.00 984.00 Z"
       id="guitar_potato_hole" />
  </g>
  <g
     fill="#EB4F28"
     fill-opacity="1.00"
     stroke="None"
     id="g656"
     inkscape:label="guitar">
    <path
       d="m 1436.5978,346.13364 c -8.656,-11.33949 -22.4443,-23.5311 -35.8556,-12.79373 -13.4302,11.27455 -3.602,19.65253 5.9724,31.78927 -8.6922,5.67419 -17.8325,11.49559 -23.8989,15.60588 1.0788,11.53296 2.7982,25.03568 3.9015,34.45338 -10.7609,10.54634 -17.5259,17.14461 -24.5265,23.68986 -7.0007,6.54524 -14.2371,13.03746 -25.9407,23.3717 -3.86,3.645 -7.67,7.0925 -11.4225,10.5925 -3.7525,3.5 -7.4475,7.0525 -11.0775,10.9075 -3.625,3.855 -7.495,7.265 -11.3362,10.69375 -3.8413,3.42875 -7.6538,6.87625 -11.1638,10.80625 -3.51,3.925 -7.3525,7.4525 -11.2087,10.9225 -3.8563,3.47 -7.7263,6.8825 -11.2913,10.5775 -3.56,3.7 -7.51,7.025 -11.4387,10.29375 -3.9288,3.26875 -7.8363,6.48125 -11.3113,9.95625 -7.2317,8.50478 -8.9896,10.09684 -17,18 -2.28,1.95 -4.86,4 -7,6 -23.42,21.86 -46.56,45.12 -71,66 -5.45,5.45 -10.7949,11.21915 -19,18 -5.2568,5.8287 -11.38,11.57 -14.75,15.25 -3.37,3.67 -11.51,11.05 -15.5,14.5 -3.99,3.46 -6.5782,6.05877 -15.45,13.89 -12.4708,-7.54143 -14.2,-9.02 -18.3,-11.64 -11.66,-5.96 -25.5705,-11.75847 -37.2307,-15.99725 -10.1976,-1.77758 -16.5284,-3.14881 -27.7493,-5.02275 -9.72,-0.84 -20.84,-1.18 -31.02,-0.98 -5.99446,0.88285 -9.80773,1.69145 -15,3 -2.72,0.88 -5.31,2.01 -8,3 -2.18844,0.88093 -19.07313,9.90007 -22.47947,11.62355 C 915.11048,693.93563 907.10008,704.2137 895,723 c -5.5233,10.85295 -8.94678,17.71374 -15,27 -3.97,6.25 -5.6501,9.70232 -14.96061,22.06839 -6.3138,7.84539 -7.61182,8.64553 -12.98631,15.69109 -4.23876,5.2685 -7.37519,8.60686 -15.41845,15.53739 C 830.84584,808.77283 827.45,811.5 824.25,814.25 c -3.2,2.74 -10.39,7.17 -14.5,10.5 -4.1,3.34 -10.19,6.7 -14.98,10.02 -8.39083,4.44631 -19.78007,7.8775 -25.77,10.23 -19.76105,7.77423 -34.97487,14.56858 -52.91214,23.13326 C 697.95432,877.88968 696.89171,878.23821 679,889 c -14.66936,10.44082 -16.00525,11.29128 -36,26 -15.17,11.74 -29.07,31.31 -38,47 -13.61,23.9 -17.08,61.09 -10,88 5.11,19.41 16.02,37.4 27,54 11.94929,16.8382 11.99421,16.7319 25,33 22.92,26.29 55.02,44.46 75,73 28.42,28.17 54.23,43.93 90.07,60.93 35.85,16.99 86.8,12.65 120.18,-8.68 33.37,-21.34 51.21,-46.36 72.52,-78.48 21.31,-32.11 29.01,-72.48 45.23,-106.77 5.17,-10.93 14.87,-21.66 23.75,-30.25 8.88,-8.59 18.5174,-17.0039 28.25,-26.75 3.64,-2.11 6.91,-5.12 10,-8 11.7464,-7.558 26.5447,-16.74358 42,-26 10.47,-4.57 19.87,-13.7 30,-20 4.9315,-3.77069 11.3935,-10.41172 15,-15 2.25,-4.25 5.96,-8.88 8,-13 3.81,-7.71 5.77,-18.41 7,-27 1.4535,-8.0968 1.4703,-7.7254 2,-14 0.48,-10.37 -1.58,-20.09 -3,-30 -3.2,-12.73 -7.42,-26.06 -13,-38 -4.77,-7.48 -8.52,-14.75 -12,-23 -4.0555,-7.24 -3.2968,-5.39505 -9.3734,-20.08513 14.8011,-16.39021 19.257,-20.96619 30.6234,-34.66487 2.1712,-3.58 8.1795,-9.67 12.5,-14.5 4.1599,-3.96883 7.8766,-7.92952 14,-13 4.6154,-3.82175 9.46,-9.13 13.25,-13.75 5.8405,-6.36165 5.604,-6.49561 9,-10 5.12,-6.26 11.75,-11.96 16.75,-18.25 5,-6.3 10.74,-11.72 16.5,-17.5 5.75,-5.79 10.12,-12.53 15.5,-18.5 5.39,-5.97 10.78,-11.75 16.5,-17.5 5.72,-5.75 10.5,-12.11 16,-18 5.49,-5.89 10.64,-12.03 16,-18 5.36,-5.97 10.89,-11.69 16.5,-17.5 5.62,-5.81 11.74,-11.11 16.5,-17.5 4.76,-6.39 11.25,-11.32 16.5,-17.5 5.26,-6.18 10.81,-11.36 16.48,-17.52 17.1004,-18.40122 17.7482,-18.37777 37.7861,-39.04366 18.1801,-0.61209 18.0539,-0.51101 33.4282,-0.0875 7.4963,-11.08175 8.5348,-12.9406 13.6505,-20.79519 10.903,10.01514 20.1781,17.14931 30.8376,6.19883 10.6595,-10.95048 -1.7317,-26.91774 -12.6738,-35.56634 5.6194,-9.12538 6.6216,-11.04581 10.8585,-17.48777 11.2351,9.81083 18.5064,14.2599 28.5975,3.53086 10.091,-10.72903 -1.5626,-22.73562 -11.7824,-33.42285 4.2648,-8.18002 7.6637,-13.34078 12.3194,-23.45075 -11.6578,-12.64128 -19.4291,-20.84698 -27.6582,-29.10609 -8.2291,-8.2591 -16.916,-16.5716 -30.4049,-29.42647 -9.8907,6.17491 -11.3668,7.13798 -22.7182,13.14228 -8.4299,-9.56083 -20.0957,-24.9397 -35.2346,-12.81875 -14.4467,11.56672 5.4335,32.35774 5.4335,32.35774 M 998,850 c 33.78,8.37 47.03,53.17 24.7,79.7 -22.34,26.52 -68.27,19.84 -80.63,-13.77 C 929.71,882.31 960.02,840.59 998,850 M 846,984 c 12.5,1.54 18.91,17.04 29.25,24.75 10.34,7.72 17.75,16.71 28.05,25.95 10.3,9.24 -2.88,33.82 -17.3,30.3 -14.42,-3.52 -19.93,-13.58 -30.25,-23.75 -10.32,-10.17 -18.24,-15.08 -27.5,-26.5 -9.26,-11.42 0.82,-32.83 17.75,-30.75 z"
       id="guitar"
       sodipodi:nodetypes="cccccscscscscscccccccccccccccccccccccccccccccccccssccccccccccccccscccccscscsccccczcczccsccscccccccssssc" />
  </g>
</svg>
